<svg xmlns="http://www.w3.org/2000/svg" viewBox="0 0 430 430" role="img" aria-label="BrandHeist logo">
  <rect width="430" height="430" fill="#000000"/>
  <path transform="translate(63.474,21.657) scale(0.38361)" d="M0 0 C2.215 -0.388 2.215 -0.388 4.938 -0.398 C5.915 -0.402 6.892 -0.406 7.898 -0.41 C8.922 -0.399 9.945 -0.387 11 -0.375 C11.512 -0.381 11.512 -0.381 14.102 -0.41 C14.59 -0.408 14.59 -0.408 17.062 -0.398 C17.512 -0.397 17.512 -0.397 19.785 -0.388 C20.516 -0.26 21.247 -0.132 22 0 C22.66 0.99 23.32 1.98 24 3 C26.172 3.266 26.172 3.266 28.75 3.25 C33.48 3.583 33.48 3.583 35.746 5.402 C36.719 6.607 37.659 7.839 38.566 9.094 C40.083 11.11 41.685 12.58 43.625 14.188 C44.208 14.676 44.79 15.165 45.391 15.668 C45.656 15.888 45.656 15.888 47 17 C50.924 20.305 50.924 20.305 51.312 23.875 C52.209 27.949 53.978 29.007 57.172 31.5 C59.825 33.677 61.807 36.369 64 39 C66.273 41.072 68.635 43.034 71 45 C74.924 48.305 74.924 48.305 75.312 51.875 C76.209 55.949 77.978 57.007 81.172 59.5 C83.825 61.677 85.807 64.369 88 67 C89.238 68.015 90.488 69.015 91.75 70 C95.186 72.82 95.273 74.64 96 79 C97.604 80.692 99.335 82.066 101.172 83.5 C103.825 85.677 105.807 88.369 108 91 C109.238 92.015 110.488 93.015 111.75 94 C115.186 96.82 115.273 98.64 116 103 C117.599 104.687 119.323 106.057 121.156 107.484 C122.946 108.955 124.311 110.442 125.75 112.25 C128 115 128 115 131 117 C131.082 117.908 131.165 118.815 131.25 119.75 C132.209 123.908 133.909 124.953 137.172 127.5 C139.825 129.677 141.807 132.369 144 135 C145.238 136.015 146.488 137.015 147.75 138 C151.186 140.82 151.273 142.64 152 147 C153.604 148.692 155.335 150.066 157.172 151.5 C159.825 153.677 161.807 156.369 164 159 C165.238 160.015 166.488 161.015 167.75 162 C171.186 164.82 171.273 166.64 172 171 C173.604 172.692 175.335 174.066 177.172 175.5 C179.825 177.677 181.807 180.369 184 183 C185.238 184.015 186.488 185.015 187.75 186 C191.186 188.82 191.273 190.64 192 195 C193.599 196.687 195.323 198.057 197.156 199.484 C198.946 200.955 200.311 202.442 201.75 204.25 C204 207 204 207 207 209 C207.082 209.908 207.165 210.815 207.25 211.75 C208.209 215.908 209.909 216.953 213.172 219.5 C215.825 221.677 217.807 224.369 220 227 C221.238 228.015 222.488 229.015 223.75 230 C227.186 232.82 227.273 234.64 228 239 C229.604 240.692 231.335 242.066 233.172 243.5 C235.825 245.677 237.807 248.369 240 251 C241.238 252.015 242.488 253.015 243.75 254 C247.186 256.82 247.273 258.64 248 263 C249.685 264.769 251.465 266.223 253.406 267.703 C255 269 255 269 256 271 C258.875 271.188 258.875 271.188 262 271 C262.66 270.01 263.32 269.02 264 268 C266 267.667 268 267.333 270 267 C270.66 266.01 271.32 265.02 272 264 C274 263.667 276 263.333 278 263 C278.66 262.01 279.32 261.02 280 260 C280.908 259.918 281.815 259.835 282.75 259.75 C286.418 258.904 286.801 258.347 289 255.5 C291.639 252.083 291.639 252.083 295.25 251.25 C296.158 251.168 297.065 251.085 298 251 C298.66 250.01 299.32 249.02 300 248 C302 247.667 304 247.333 306 247 C306.66 246.01 307.32 245.02 308 244 C310 243.667 312 243.333 314 243 C314.66 242.01 315.32 241.02 316 240 C318 239.667 320 239.333 322 239 C322.66 238.01 323.32 237.02 324 236 C326 235.667 328 235.333 330 235 C330.66 234.01 331.32 233.02 332 232 C334 231.667 336 231.333 338 231 C338.66 230.01 339.32 229.02 340 228 C340.908 227.918 341.815 227.835 342.75 227.75 C346.418 226.904 346.801 226.347 349 223.5 C351.639 220.083 351.639 220.083 355.25 219.25 C356.158 219.168 357.065 219.085 358 219 C358.66 218.01 359.32 217.02 360 216 C362 215.667 364 215.333 366 215 C366.66 214.01 367.32 213.02 368 212 C370 211.667 372 211.333 374 211 C374.66 210.01 375.32 209.02 376 208 C378 207.667 380 207.333 382 207 C382.66 206.01 383.32 205.02 384 204 C386 203.667 388 203.333 390 203 C390.66 202.01 391.32 201.02 392 200 C394 199.667 396 199.333 398 199 C398.66 198.01 399.32 197.02 400 196 C400.908 195.918 401.815 195.835 402.75 195.75 C406.418 194.904 406.801 194.347 409 191.5 C411.639 188.083 411.639 188.083 415.25 187.25 C416.158 187.168 417.065 187.085 418 187 C418.66 186.01 419.32 185.02 420 184 C422 183.667 424 183.333 426 183 C426.66 182.01 427.32 181.02 428 180 C430 179.667 432 179.333 434 179 C434.66 178.01 435.32 177.02 436 176 C438 175.667 440 175.333 442 175 C442.66 174.01 443.32 173.02 444 172 C446 171.667 448 171.333 450 171 C450.66 170.01 451.32 169.02 452 168 C452.908 167.918 453.815 167.835 454.75 167.75 C458.418 166.904 458.801 166.347 461 163.5 C463.639 160.083 463.639 160.083 467.25 159.25 C468.158 159.168 469.065 159.085 470 159 C470.66 158.01 471.32 157.02 472 156 C474 155.667 476 155.333 478 155 C478.33 154.505 478.33 154.505 480 152 C482 151.667 484 151.333 486 151 C486.66 150.01 487.32 149.02 488 148 C490 147.667 492 147.333 494 147 C494.66 146.01 495.32 145.02 496 144 C498 143.667 500 143.333 502 143 C502.66 142.01 503.32 141.02 504 140 C506 139.667 508 139.333 510 139 C510.66 138.01 511.32 137.02 512 136 C514 135.667 516 135.333 518 135 C518.66 134.01 519.32 133.02 520 132 C520.908 131.918 521.815 131.835 522.75 131.75 C526.418 130.904 526.801 130.347 529 127.5 C531.639 124.083 531.639 124.083 535.25 123.25 C536.158 123.168 537.065 123.085 538 123 C538.66 122.01 539.32 121.02 540 120 C542 119.667 544 119.333 546 119 C546.66 118.01 547.32 117.02 548 116 C550 115.667 552 115.333 554 115 C554.66 114.01 555.32 113.02 556 112 C558 111.667 560 111.333 562 111 C562.66 110.01 563.32 109.02 564 108 C566 107.667 568 107.333 570 107 C570.66 106.01 571.32 105.02 572 104 C572.908 103.918 573.815 103.835 574.75 103.75 C578.418 102.904 578.801 102.347 581 99.5 C583.639 96.083 583.639 96.083 587.25 95.25 C588.158 95.168 589.065 95.085 590 95 C590.66 94.01 591.32 93.02 592 92 C594 91.667 596 91.333 598 91 C598.66 90.01 599.32 89.02 600 88 C602 87.667 604 87.333 606 87 C606.66 86.01 607.32 85.02 608 84 C610 83.667 612 83.333 614 83 C614.66 82.01 615.32 81.02 616 80 C618 79.667 620 79.333 622 79 C622.66 78.01 623.32 77.02 624 76 C624.908 75.918 625.815 75.835 626.75 75.75 C630.458 74.894 630.653 74.431 632.75 71.5 C634.596 69.091 635.363 68.117 638.391 67.562 C640.13 67.521 641.87 67.479 643.609 67.438 C647.308 66.761 648.523 64.516 650.625 61.578 C652.704 59.192 654.962 59.276 658 59 C658.66 58.01 659.32 57.02 660 56 C662 55.667 664 55.333 666 55 C666.66 54.01 667.32 53.02 668 52 C670 51.667 672 51.333 674 51 C674.66 50.01 675.32 49.02 676 48 C678 47.667 680 47.333 682 47 C682.66 46.01 683.32 45.02 684 44 C686 43.667 688 43.333 690 43 C690.66 42.01 691.32 41.02 692 40 C692.908 39.918 693.815 39.835 694.75 39.75 C698.418 38.904 698.801 38.347 701 35.5 C703.639 32.083 703.639 32.083 707.25 31.25 C707.704 31.209 707.704 31.209 710 31 C710.66 30.01 711.32 29.02 712 28 C714 27.667 716 27.333 718 27 C718.66 26.01 719.32 25.02 720 24 C722 23.667 724 23.333 726 23 C726.66 22.01 727.32 21.02 728 20 C730 19.667 732 19.333 734 19 C734.66 18.01 735.32 17.02 736 16 C738 15.667 740 15.333 742 15 C742.66 14.01 743.32 13.02 744 12 C744.454 11.959 744.454 11.959 746.75 11.75 C750.458 10.894 750.653 10.431 752.75 7.5 C754.634 5.035 755.466 4.122 758.531 3.422 C760.294 3.31 762.062 3.255 763.828 3.266 C764.545 3.178 765.262 3.09 766 3 C766.66 2.01 767.32 1.02 768 0 C770.215 -0.388 770.215 -0.388 772.938 -0.398 C773.915 -0.402 774.892 -0.406 775.898 -0.41 C776.922 -0.399 777.945 -0.387 779 -0.375 C780.024 -0.387 781.047 -0.398 782.102 -0.41 C783.079 -0.406 784.056 -0.402 785.062 -0.398 C785.512 -0.397 785.512 -0.397 787.785 -0.388 C788.516 -0.26 789.247 -0.132 790 0 C790.66 0.99 791.32 1.98 792 3 C794.172 3.266 794.172 3.266 796.75 3.25 C801.48 3.583 801.48 3.583 803.746 5.402 C804.719 6.607 805.659 7.839 806.566 9.094 C808.083 11.11 809.685 12.58 811.625 14.188 C811.916 14.432 811.916 14.432 813.391 15.668 C813.922 16.108 814.453 16.547 815 17 C818.818 20.215 819.26 22.137 820 27 C820.99 27.66 821.98 28.32 823 29 C823.388 30.848 823.388 30.848 823.398 33.062 C823.402 33.859 823.406 34.656 823.41 35.477 C823.404 35.893 823.404 35.893 823.375 38 C823.387 38.833 823.398 39.665 823.41 40.523 C823.406 41.32 823.402 42.117 823.398 42.938 C823.395 43.668 823.392 44.399 823.388 45.152 C823 47 823 47 820 49 C819.306 51.325 818.639 53.659 818 56 C817.34 56.33 816.68 56.66 816 57 C815.753 58.072 815.505 59.145 815.25 60.25 C813.731 64.808 811.627 65.978 808 69 C807.67 70.155 807.34 71.31 807 72.5 C805.918 76.288 804.748 77.395 801.641 79.688 C799.828 81.138 798.47 82.705 797 84.5 C794.268 87.797 791.334 90.318 788 93 C784.993 95.506 784.108 96.575 783.125 100.438 C781.936 104.201 780.777 105.377 777.656 107.672 C775.174 109.662 773.29 112.082 771.297 114.547 C770 116 770 116 768 117 C767.753 118.072 767.505 119.145 767.25 120.25 C765.962 124.115 764.849 125.32 761.641 127.688 C759.828 129.138 758.47 130.705 757 132.5 C755.071 134.855 753.197 136.695 750.75 138.5 C748 141 748 141 747 144.5 C745.918 148.288 744.748 149.395 741.641 151.688 C739.828 153.138 738.47 154.705 737 156.5 C735.071 158.855 733.197 160.695 730.75 162.5 C728 165 728 165 727 168.5 C725.918 172.288 724.748 173.395 721.641 175.688 C719.828 177.138 718.47 178.705 717 180.5 C715.071 182.855 713.197 184.695 710.75 186.5 C708 189 708 189 707 192.5 C705.918 196.288 704.748 197.395 701.641 199.688 C699.828 201.138 698.47 202.705 697 204.5 C695.071 206.855 693.197 208.695 690.75 210.5 C688 213 688 213 687 216.5 C685.92 220.28 684.763 221.388 681.656 223.672 C679.174 225.662 677.29 228.082 675.297 230.547 C674 232 674 232 672 233 C671.753 234.072 671.505 235.145 671.25 236.25 C669.962 240.115 668.849 241.32 665.641 243.688 C663.828 245.138 662.47 246.705 661 248.5 C658.268 251.797 655.334 254.318 652 257 C648.993 259.506 648.108 260.575 647.125 264.438 C645.934 268.209 644.763 269.384 641.641 271.688 C639.828 273.138 638.47 274.705 637 276.5 C635.071 278.855 633.197 280.695 630.75 282.5 C628 285 628 285 627 288.5 C625.92 292.28 624.763 293.388 621.656 295.672 C619.174 297.662 617.29 300.082 615.297 302.547 C614 304 614 304 612 305 C611.753 306.072 611.505 307.145 611.25 308.25 C609.962 312.115 608.849 313.32 605.641 315.688 C603.828 317.138 602.47 318.705 601 320.5 C599.071 322.855 597.197 324.695 594.75 326.5 C592 329 592 329 591 332.5 C589.918 336.288 588.748 337.395 585.641 339.688 C583.828 341.138 582.47 342.705 581 344.5 C579.071 346.855 577.197 348.695 574.75 350.5 C572 353 572 353 571 356.5 C569.918 360.288 568.748 361.395 565.641 363.688 C563.828 365.138 562.47 366.705 561 368.5 C559.071 370.855 557.197 372.695 554.75 374.5 C552 377 552 377 551 380.5 C549.92 384.28 548.763 385.388 545.656 387.672 C543.174 389.662 541.29 392.082 539.297 394.547 C538 396 538 396 536 397 C535.753 398.072 535.505 399.145 535.25 400.25 C533.962 404.115 532.849 405.32 529.641 407.688 C527.828 409.138 526.47 410.705 525 412.5 C523.071 414.855 521.197 416.695 518.75 418.5 C516 421 516 421 515 424.5 C513.918 428.288 512.748 429.395 509.641 431.688 C507.828 433.138 506.47 434.705 505 436.5 C503.071 438.855 501.197 440.695 498.75 442.5 C496 445 496 445 495 448.5 C493.918 452.288 492.748 453.395 489.641 455.688 C487.828 457.138 486.47 458.705 485 460.5 C483.071 462.855 481.197 464.695 478.75 466.5 C476 469 476 469 475 472.5 C473.918 476.288 472.748 477.395 469.641 479.688 C467.828 481.138 466.47 482.705 465 484.5 C463.071 486.855 461.197 488.695 458.75 490.5 C455.458 493.493 454.983 495.741 454 500 C453.34 500.33 452.68 500.66 452 501 C451.812 503.875 451.812 503.875 452 507 C452.99 507.66 453.98 508.32 455 509 C455.082 509.908 455.165 510.815 455.25 511.75 C456.209 515.908 457.909 516.953 461.172 519.5 C463.825 521.677 465.807 524.369 468 527 C469.238 528.015 470.488 529.015 471.75 530 C475.186 532.82 475.273 534.64 476 539 C477.604 540.692 479.335 542.066 481.172 543.5 C483.825 545.677 485.807 548.369 488 551 C489.238 552.015 490.488 553.015 491.75 554 C495.186 556.82 495.273 558.64 496 563 C497.599 564.687 499.323 566.057 501.156 567.484 C502.946 568.955 504.311 570.442 505.75 572.25 C508 575 508 575 511 577 C511.041 577.454 511.041 577.454 511.25 579.75 C512.209 583.908 513.909 584.953 517.172 587.5 C519.825 589.677 521.807 592.369 524 595 C525.238 596.015 526.488 597.015 527.75 598 C531.186 600.82 531.273 602.64 532 607 C533.604 608.692 535.335 610.066 537.172 611.5 C539.825 613.677 541.807 616.369 544 619 C545.238 620.015 546.488 621.015 547.75 622 C551.186 624.82 551.273 626.64 552 631 C553.604 632.692 555.335 634.066 557.172 635.5 C559.825 637.677 561.807 640.369 564 643 C566.273 645.072 568.635 647.034 571 649 C574.924 652.305 574.924 652.305 575.312 655.875 C576.207 659.942 577.965 661 581.156 663.484 C582.946 664.955 584.311 666.442 585.75 668.25 C588 671 588 671 591 673 C591.041 673.454 591.041 673.454 591.25 675.75 C592.208 679.901 593.896 680.946 597.156 683.484 C598.946 684.955 600.311 686.442 601.75 688.25 C604 691 604 691 607 693 C607.041 693.454 607.041 693.454 607.25 695.75 C608.209 699.908 609.909 700.953 613.172 703.5 C615.825 705.677 617.807 708.369 620 711 C621.238 712.015 622.488 713.015 623.75 714 C627.186 716.82 627.273 718.64 628 723 C629.604 724.692 631.335 726.066 633.172 727.5 C635.825 729.677 637.807 732.369 640 735 C641.238 736.015 642.488 737.015 643.75 738 C647.186 740.82 647.273 742.64 648 747 C649.604 748.692 651.335 750.066 653.172 751.5 C655.825 753.677 657.807 756.369 660 759 C661.238 760.015 662.488 761.015 663.75 762 C667.186 764.82 667.273 766.64 668 771 C669.604 772.692 671.335 774.066 673.172 775.5 C675.825 777.677 677.807 780.369 680 783 C681.238 784.015 682.488 785.015 683.75 786 C687.186 788.82 687.273 790.64 688 795 C689.599 796.687 691.323 798.057 693.156 799.484 C694.946 800.955 696.311 802.442 697.75 804.25 C700 807 700 807 703 809 C703.041 809.454 703.041 809.454 703.25 811.75 C704.209 815.908 705.909 816.953 709.172 819.5 C711.825 821.677 713.807 824.369 716 827 C717.238 828.015 718.488 829.015 719.75 830 C723.186 832.82 723.273 834.64 724 839 C725.604 840.692 727.335 842.066 729.172 843.5 C731.825 845.677 733.807 848.369 736 851 C737.238 852.015 738.488 853.015 739.75 854 C743.186 856.82 743.273 858.64 744 863 C745.599 864.687 747.323 866.057 749.156 867.484 C750.946 868.955 752.311 870.442 753.75 872.25 C756 875 756 875 759 877 C759.041 877.454 759.041 877.454 759.25 879.75 C760.209 883.908 761.909 884.953 765.172 887.5 C767.825 889.677 769.807 892.369 772 895 C773.238 896.015 774.488 897.015 775.75 898 C779.186 900.82 779.273 902.64 780 907 C781.604 908.692 783.335 910.066 785.172 911.5 C787.825 913.677 789.807 916.369 792 919 C793.238 920.015 794.488 921.015 795.75 922 C799.186 924.82 799.273 926.64 800 931 C801.599 932.687 803.323 934.057 805.156 935.484 C806.946 936.955 808.311 938.442 809.75 940.25 C812 943 812 943 815 945 C815.333 947 815.667 949 816 951 C816.99 951.66 817.98 952.32 819 953 C819.333 955 819.667 957 820 959 C820.99 959.66 821.98 960.32 823 961 C823.398 964.188 823.398 964.188 823.375 968 C823.383 969.258 823.39 970.516 823.398 971.812 C823.333 972.338 823.333 972.338 823 975 C822.01 975.66 821.02 976.32 820 977 C819.734 979.172 819.734 979.172 819.75 981.75 C819.417 986.48 819.417 986.48 817.598 988.746 C816.393 989.719 815.161 990.659 813.906 991.566 C811.89 993.083 810.42 994.685 808.812 996.625 C808.319 997.208 807.825 997.79 807.316 998.391 C806.255 999.688 805.244 1001.026 804.25 1002.375 C801.066 1004.674 798.101 1004.532 794.242 1004.629 C793.872 1004.69 793.872 1004.69 792 1005 C791.34 1005.99 790.68 1006.98 790 1008 C787.673 1008.375 787.673 1008.375 784.688 1008.376 C783.552 1008.384 782.416 1008.391 781.245 1008.399 C779.983 1008.392 778.722 1008.385 777.422 1008.378 C776.073 1008.381 774.724 1008.385 773.375 1008.391 C769.638 1008.403 765.902 1008.395 762.166 1008.385 C758.112 1008.378 754.059 1008.388 750.005 1008.395 C742.89 1008.406 735.776 1008.406 728.662 1008.398 C718.083 1008.387 707.504 1008.392 696.925 1008.402 C678.035 1008.417 659.146 1008.416 640.256 1008.407 C623.725 1008.4 607.195 1008.398 590.664 1008.401 C589.57 1008.402 588.475 1008.402 587.347 1008.402 C582.903 1008.403 578.46 1008.404 574.016 1008.405 C532.297 1008.414 490.578 1008.406 448.859 1008.39 C411.761 1008.375 374.663 1008.377 337.565 1008.391 C295.925 1008.407 254.284 1008.414 212.643 1008.404 C208.207 1008.403 203.771 1008.402 199.336 1008.401 C198.79 1008.401 198.79 1008.401 196.026 1008.401 C179.502 1008.397 162.979 1008.401 146.455 1008.409 C127.675 1008.417 108.894 1008.415 90.114 1008.399 C79.592 1008.39 69.07 1008.39 58.548 1008.401 C51.532 1008.408 44.516 1008.404 37.5 1008.39 C33.494 1008.383 29.488 1008.381 25.483 1008.392 C21.846 1008.401 18.209 1008.397 14.572 1008.382 C12.633 1008.378 10.694 1008.388 8.755 1008.399 C7.619 1008.391 6.482 1008.384 5.312 1008.376 C4.327 1008.376 3.342 1008.376 2.327 1008.375 C1.559 1008.252 0.791 1008.128 0 1008 C-0.66 1007.01 -1.32 1006.02 -2 1005 C-4.172 1004.734 -4.172 1004.734 -6.75 1004.75 C-11.48 1004.417 -11.48 1004.417 -13.746 1002.598 C-14.719 1001.393 -15.659 1000.161 -16.566 998.906 C-18.083 996.89 -19.685 995.42 -21.625 993.812 C-22.208 993.319 -22.79 992.825 -23.391 992.316 C-24.688 991.255 -26.026 990.244 -27.375 989.25 C-29.674 986.066 -29.532 983.101 -29.629 979.242 C-29.751 978.502 -29.874 977.762 -30 977 C-30.99 976.34 -31.98 975.68 -33 975 C-33.375 972.284 -33.375 972.284 -33.376 968.739 C-33.38 968.086 -33.384 967.432 -33.389 966.759 C-33.399 964.542 -33.388 962.327 -33.378 960.11 C-33.381 958.509 -33.385 956.908 -33.391 955.306 C-33.403 950.869 -33.395 946.432 -33.385 941.995 C-33.378 937.182 -33.388 932.368 -33.395 927.555 C-33.406 919.107 -33.406 910.659 -33.398 902.21 C-33.387 889.648 -33.392 877.086 -33.402 864.523 C-33.417 842.092 -33.416 819.661 -33.407 797.23 C-33.4 777.6 -33.398 757.971 -33.401 738.341 C-33.402 737.041 -33.402 735.741 -33.402 734.402 C-33.403 729.126 -33.404 723.849 -33.405 718.573 C-33.408 703.822 -33.409 689.071 -33.41 674.32 C-33.41 673.648 -33.41 672.976 -33.411 672.284 C-33.412 650.869 -33.408 629.454 -33.402 608.039 C-33.402 607.344 -33.401 606.65 -33.401 605.934 C-33.398 594.649 -33.394 583.364 -33.39 572.079 C-33.376 527.319 -33.377 482.558 -33.391 437.798 C-33.395 426.519 -33.398 415.24 -33.402 403.961 C-33.402 403.266 -33.402 402.572 -33.402 401.856 C-33.409 380.464 -33.412 359.072 -33.41 337.68 C-33.41 337.009 -33.41 336.337 -33.41 335.646 C-33.409 320.25 -33.407 304.855 -33.404 289.46 C-33.403 284.193 -33.402 278.926 -33.401 273.659 C-33.401 272.362 -33.401 271.065 -33.401 269.728 C-33.397 250.107 -33.401 230.486 -33.409 210.864 C-33.417 188.563 -33.415 166.262 -33.399 143.961 C-33.39 131.466 -33.39 118.971 -33.401 106.476 C-33.408 98.145 -33.404 89.814 -33.39 81.482 C-33.383 76.725 -33.381 71.969 -33.392 67.212 C-33.401 62.893 -33.397 58.575 -33.382 54.257 C-33.379 52.696 -33.381 51.134 -33.389 49.573 C-33.398 47.469 -33.39 45.365 -33.376 43.261 C-33.376 42.091 -33.376 40.921 -33.375 39.716 C-33.252 38.82 -33.128 37.923 -33 37 C-32.01 36.34 -31.02 35.68 -30 35 C-29.594 32.688 -29.594 32.688 -29.5 30 C-29.406 27.312 -29.406 27.312 -29 25 C-28.01 24.34 -27.02 23.68 -26 23 C-25.866 22.453 -25.866 22.453 -25.188 19.688 C-23.95 15.844 -22.837 14.645 -19.625 12.328 C-17.782 10.822 -16.632 9.182 -15.25 7.25 C-13.346 4.901 -12.457 4.101 -9.469 3.438 C-6.75 3.25 -6.75 3.25 -4.172 3.266 C-3.814 3.222 -3.814 3.222 -2 3 C-1.34 2.01 -0.68 1.02 0 0 Z M55 160 C54.998 161.044 54.995 162.089 54.993 163.165 C54.934 188.543 54.858 213.922 54.764 239.3 C54.719 251.573 54.68 263.845 54.654 276.118 C54.631 286.812 54.597 297.505 54.551 308.198 C54.527 313.863 54.509 319.528 54.502 325.194 C54.496 330.521 54.476 335.847 54.446 341.174 C54.437 343.134 54.433 345.094 54.435 347.054 C54.437 349.721 54.42 352.387 54.399 355.053 C54.404 355.837 54.408 356.621 54.413 357.429 C54.385 359.584 54.385 359.584 54 363 C53.505 363.33 53.505 363.33 51 365 C51.33 365.99 51.66 366.98 52 368 C52.66 368.33 53.32 368.66 54 369 C54.414 371.504 54.414 371.504 54.625 374.562 C54.7 375.574 54.775 376.586 54.852 377.629 C54.901 378.411 54.95 379.194 55 380 C56.938 379.688 56.938 379.688 59 379 C59.33 378.01 59.66 377.02 60 376 C60.949 376.062 61.898 376.124 62.875 376.188 C63.906 376.126 64.938 376.064 66 376 C66.66 375.01 67.32 374.02 68 373 C70.325 372.306 72.659 371.639 75 371 C75.33 370.34 75.66 369.68 76 369 C78.333 368.333 80.667 367.667 83 367 C83.33 366.34 83.66 365.68 84 365 C86.333 364.333 88.667 363.667 91 363 C91.33 362.34 91.66 361.68 92 361 C94.333 360.333 96.667 359.667 99 359 C99.33 358.34 99.66 357.68 100 357 C101.072 356.753 102.145 356.505 103.25 356.25 C107 355 107 355 109.5 352 C112.484 348.42 114.557 348.025 119 347 C119.33 346.34 119.66 345.68 120 345 C122.333 344.333 124.667 343.667 127 343 C127.33 342.34 127.66 341.68 128 341 C130.333 340.333 132.667 339.667 135 339 C135.33 338.34 135.66 337.68 136 337 C138.333 336.333 140.667 335.667 143 335 C143.33 334.34 143.66 333.68 144 333 C146.333 332.333 148.667 331.667 151 331 C151.33 330.34 151.66 329.68 152 329 C154.333 328.333 156.667 327.667 159 327 C159.33 326.34 159.66 325.68 160 325 C160.536 324.876 160.536 324.876 163.25 324.25 C167 323 167 323 169.5 320 C172.484 316.42 174.557 316.025 179 315 C179.33 314.34 179.66 313.68 180 313 C180.99 312.67 181.98 312.34 183 312 C182.875 310.312 182.875 310.312 182 308 C180.587 306.784 179.166 305.574 177.691 304.434 C175.245 302.361 173.308 299.94 171.297 297.453 C170 296 170 296 168 295 C167.753 293.928 167.505 292.855 167.25 291.75 C165.964 287.893 164.864 286.687 161.656 284.328 C159.174 282.338 157.29 279.918 155.297 277.453 C154 276 154 276 152 275 C151.876 274.464 151.876 274.464 151.25 271.75 C149.962 267.885 148.849 266.68 145.641 264.312 C143.242 262.394 141.455 260.056 139.516 257.688 C138.033 256.037 136.53 254.814 134.75 253.5 C131.418 250.47 131.215 248.253 130 244 C127.25 241.5 127.25 241.5 125.641 240.312 C123.242 238.394 121.455 236.056 119.516 233.688 C118.033 232.037 116.53 230.814 114.75 229.5 C111.418 226.47 111.215 224.253 110 220 C107.25 217.5 107.25 217.5 105.641 216.312 C103.242 214.394 101.455 212.056 99.516 209.688 C98.033 208.037 96.53 206.814 94.75 205.5 C91.418 202.47 91.215 200.253 90 196 C87.25 193.5 87.25 193.5 85.641 192.312 C83.242 190.394 81.455 188.056 79.516 185.688 C78.033 184.037 76.53 182.814 74.75 181.5 C71.418 178.47 71.215 176.253 70 172 C68.156 170.051 66.162 168.621 64 167 C63.34 166.01 62.68 165.02 62 164 C61.34 164 60.68 164 60 164 C59.34 162.68 58.68 161.36 58 160 C57.01 160 56.02 160 55 160 Z M607 176 C606.67 177.32 606.34 178.64 606 180 C605.348 179.919 604.695 179.838 604.023 179.754 C596.897 179.239 596.897 179.239 594.246 181.488 C593.29 182.747 592.356 184.024 591.445 185.316 C589.082 188.07 586.466 188.252 583 189 C582.67 189.66 582.34 190.32 582 191 C579.667 191.667 577.333 192.333 575 193 C574.67 193.66 574.34 194.32 574 195 C571.667 195.667 569.333 196.333 567 197 C566.67 197.66 566.34 198.32 566 199 C563.667 199.667 561.333 200.333 559 201 C558.67 201.66 558.34 202.32 558 203 C555.667 203.667 553.333 204.333 551 205 C550.67 205.66 550.34 206.32 550 207 C547.667 207.667 545.333 208.333 543 209 C542.67 209.66 542.34 210.32 542 211 C540.928 211.247 539.855 211.495 538.75 211.75 C535 213 535 213 532.5 216 C529.516 219.58 527.443 219.975 523 221 C522.67 221.66 522.34 222.32 522 223 C519.667 223.667 517.333 224.333 515 225 C514.67 225.66 514.34 226.32 514 227 C511.667 227.667 509.333 228.333 507 229 C506.67 229.66 506.34 230.32 506 231 C503.667 231.667 501.333 232.333 499 233 C498.67 233.66 498.34 234.32 498 235 C495.667 235.667 493.333 236.333 491 237 C490.67 237.66 490.34 238.32 490 239 C487.667 239.667 485.333 240.333 483 241 C482.67 241.66 482.34 242.32 482 243 C480.928 243.247 479.855 243.495 478.75 243.75 C475 245 475 245 472.5 248 C469.516 251.58 467.443 251.975 463 253 C462.67 253.66 462.34 254.32 462 255 C459.667 255.667 457.333 256.333 455 257 C454.67 257.66 454.34 258.32 454 259 C451.667 259.667 449.333 260.333 447 261 C446.67 261.66 446.34 262.32 446 263 C443.667 263.667 441.333 264.333 439 265 C438.67 265.66 438.34 266.32 438 267 C435.667 267.667 433.333 268.333 431 269 C430.67 269.66 430.34 270.32 430 271 C427.667 271.667 425.333 272.333 423 273 C422.67 273.66 422.34 274.32 422 275 C421.464 275.124 421.464 275.124 418.75 275.75 C415 277 415 277 412.5 280 C409.516 283.58 407.443 283.975 403 285 C402.67 285.66 402.34 286.32 402 287 C399.667 287.667 397.333 288.333 395 289 C394.67 289.66 394.34 290.32 394 291 C391.667 291.667 389.333 292.333 387 293 C386.67 293.66 386.34 294.32 386 295 C383.667 295.667 381.333 296.333 379 297 C378.67 297.66 378.34 298.32 378 299 C377.464 299.124 377.464 299.124 374.75 299.75 C371 301 371 301 368.688 304.062 C366 307 366 307 363.68 307.367 C362.816 307.39 361.952 307.414 361.062 307.438 C356.452 307.601 356.452 307.601 354.266 309.531 C353.306 310.79 352.365 312.064 351.445 313.352 C349.072 316.059 346.442 316.258 343 317 C342.67 317.66 342.34 318.32 342 319 C339.667 319.667 337.333 320.333 335 321 C334.67 321.66 334.34 322.32 334 323 C331.667 323.667 329.333 324.333 327 325 C326.835 325.33 326.835 325.33 326 327 C323.667 327.667 321.333 328.333 319 329 C318.835 329.33 318.835 329.33 318 331 C315.686 331.731 313.352 332.401 311 333 C310.562 335.625 310.562 335.625 311 339 C313.075 341.332 315.51 343.131 318 345 C321.029 347.538 321.883 348.541 322.875 352.438 C324.066 356.209 325.237 357.384 328.359 359.688 C330.758 361.606 332.545 363.944 334.484 366.312 C335.967 367.963 337.47 369.186 339.25 370.5 C342.582 373.53 342.785 375.747 344 380 C346.75 382.5 346.75 382.5 348.344 383.672 C350.826 385.662 352.71 388.082 354.703 390.547 C356 392 356 392 358 393 C358.247 394.072 358.495 395.145 358.75 396.25 C360.038 400.115 361.151 401.32 364.359 403.688 C366.758 405.606 368.545 407.944 370.484 410.312 C371.967 411.963 373.47 413.186 375.25 414.5 C378.582 417.53 378.785 419.747 380 424 C382.75 426.5 382.75 426.5 384.359 427.668 C386.242 429.196 387.533 430.887 389 432.812 C391.108 435.31 391.749 435.927 395 436.875 C398.863 435.748 400.245 433.887 402.605 430.727 C404 429 404 429 407 427 C407.082 426.092 407.165 425.185 407.25 424.25 C408.209 420.092 409.909 419.047 413.172 416.5 C415 415 415 415 417.5 412 C419.546 409.545 421.276 407.931 423.75 406 C426.936 403.386 426.936 403.386 427.5 400 C428.175 395.949 430.035 394.948 433.172 392.5 C435 391 435 391 437.5 388 C439.546 385.545 441.276 383.931 443.75 382 C446.936 379.386 446.936 379.386 447.5 376 C448.175 371.949 450.035 370.948 453.172 368.5 C455 367 455 367 457.5 364 C459.546 361.545 461.276 359.931 463.75 358 C466.936 355.386 466.936 355.386 467.5 352 C468.175 347.949 470.035 346.948 473.172 344.5 C475 343 475 343 477.5 340 C479.546 337.545 481.276 335.931 483.75 334 C486.936 331.386 486.936 331.386 487.5 328 C488.174 323.956 490.022 322.956 493.156 320.516 C494.946 319.045 496.311 317.558 497.75 315.75 C500 313 500 313 503 311 C503.082 310.092 503.165 309.185 503.25 308.25 C504.209 304.092 505.909 303.047 509.172 300.5 C511 299 511 299 513.5 296 C515.546 293.545 517.276 291.931 519.75 290 C522.936 287.386 522.936 287.386 523.5 284 C524.175 279.949 526.035 278.948 529.172 276.5 C531 275 531 275 533.5 272 C535.546 269.545 537.276 267.931 539.75 266 C542.936 263.386 542.936 263.386 543.5 260 C544.175 255.949 546.035 254.948 549.172 252.5 C551 251 551 251 553.5 248 C555.546 245.545 557.276 243.931 559.75 242 C562.936 239.386 562.936 239.386 563.5 236 C564.175 231.949 566.035 230.948 569.172 228.5 C571 227 571 227 573.5 224 C575.546 221.545 577.276 219.931 579.75 218 C582.936 215.386 582.936 215.386 583.5 212 C584.174 207.956 586.022 206.956 589.156 204.516 C590.946 203.045 592.311 201.558 593.75 199.75 C596 197 596 197 599 195 C599.165 194.01 599.33 193.02 599.5 192 C599.665 191.01 599.83 190.02 600 189 C600.495 188.67 600.495 188.67 603 187 C603 186.34 603 185.68 603 185 C603.639 184.711 604.279 184.423 604.938 184.125 C607 183 607 183 608 181 C608.495 180.835 608.495 180.835 611 180 C611 178.68 611 177.36 611 176 C609.68 176 608.36 176 607 176 Z M232 376 C231.34 376.99 230.68 377.98 230 379 C227.675 379.694 225.341 380.361 223 381 C222.67 381.66 222.34 382.32 222 383 C219.667 383.667 217.333 384.333 215 385 C214.67 385.66 214.34 386.32 214 387 C211.667 387.667 209.333 388.333 207 389 C206.67 389.66 206.34 390.32 206 391 C203.667 391.667 201.333 392.333 199 393 C198.67 393.66 198.34 394.32 198 395 C195.667 395.667 193.333 396.333 191 397 C190.67 397.66 190.34 398.32 190 399 C187.667 399.667 185.333 400.333 183 401 C182.67 401.66 182.34 402.32 182 403 C180.928 403.247 179.855 403.495 178.75 403.75 C175 405 175 405 172.5 408 C169.516 411.58 167.443 411.975 163 413 C162.835 413.33 162.835 413.33 162 415 C159.667 415.667 157.333 416.333 155 417 C154.835 417.33 154.835 417.33 154 419 C151.667 419.667 149.333 420.333 147 421 C146.835 421.33 146.835 421.33 146 423 C143.667 423.667 141.333 424.333 139 425 C138.835 425.33 138.835 425.33 138 427 C136.928 427.247 135.855 427.495 134.75 427.75 C131 429 131 429 128.688 432.062 C126 435 126 435 123.68 435.367 C122.816 435.39 121.952 435.414 121.062 435.438 C116.452 435.601 116.452 435.601 114.266 437.531 C113.306 438.79 112.365 440.064 111.445 441.352 C109.072 444.059 106.442 444.258 103 445 C102.67 445.66 102.34 446.32 102 447 C99.667 447.667 97.333 448.333 95 449 C94.67 449.66 94.34 450.32 94 451 C91.667 451.667 89.333 452.333 87 453 C86.67 453.66 86.34 454.32 86 455 C83.667 455.667 81.333 456.333 79 457 C78.67 457.66 78.34 458.32 78 459 C75.667 459.667 73.333 460.333 71 461 C70.67 461.66 70.34 462.32 70 463 C69.464 463.124 69.464 463.124 66.75 463.75 C61.97 465.343 60.969 467.042 58 471 C57.505 471.33 57.505 471.33 55 473 C54.835 473.99 54.67 474.98 54.5 476 C54.335 476.99 54.17 477.98 54 479 C53.505 479.33 53.505 479.33 51 481 C50.626 483.568 50.626 483.568 50.628 486.897 C50.621 488.161 50.615 489.425 50.608 490.728 C50.616 492.144 50.624 493.561 50.633 494.977 C50.63 496.471 50.627 497.965 50.623 499.459 C50.614 503.58 50.624 507.701 50.637 511.822 C50.648 516.26 50.642 520.699 50.637 525.137 C50.632 533.837 50.642 542.538 50.658 551.238 C50.675 561.359 50.677 571.481 50.677 581.602 C50.679 599.654 50.695 617.707 50.719 635.759 C50.742 653.296 50.756 670.834 50.76 688.371 C50.76 689.452 50.76 690.532 50.76 691.645 C50.761 693.821 50.761 695.997 50.762 698.172 C50.762 699.246 50.762 700.319 50.762 701.425 C50.763 702.495 50.763 703.566 50.763 704.668 C50.767 721.353 50.778 738.038 50.791 754.723 C50.795 760.781 50.798 766.839 50.801 772.897 C50.806 782.504 50.813 792.112 50.828 801.719 C50.835 806.112 50.84 810.505 50.84 814.898 C50.841 818.913 50.847 822.927 50.856 826.942 C50.858 828.401 50.859 829.86 50.858 831.319 C50.857 833.289 50.863 835.259 50.869 837.229 C50.87 838.327 50.871 839.425 50.872 840.557 C51 843 51 843 52 844 C54.688 844.5 54.688 844.5 58 844 C59.705 842.447 61.025 840.762 62.43 838.934 C64.005 836.994 65.63 835.514 67.562 833.938 C69.89 832.021 71.857 830.097 73.75 827.75 C76 825 76 825 79 823 C79.082 822.092 79.165 821.185 79.25 820.25 C80.208 816.099 81.896 815.054 85.156 812.516 C86.946 811.045 88.311 809.558 89.75 807.75 C92 805 92 805 95 803 C95.041 802.546 95.041 802.546 95.25 800.25 C96.209 796.092 97.909 795.047 101.172 792.5 C103 791 103 791 105.5 788 C108.37 784.557 111.566 781.855 115 779 C118.924 775.695 118.924 775.695 119.312 772.125 C120.209 768.051 121.978 766.993 125.172 764.5 C127 763 127 763 129.5 760 C131.546 757.545 133.276 755.931 135.75 754 C138.936 751.386 138.936 751.386 139.5 748 C140.175 743.949 142.035 742.948 145.172 740.5 C147 739 147 739 149.5 736 C151.546 733.545 153.276 731.931 155.75 730 C158.936 727.386 158.936 727.386 159.5 724 C160.174 719.956 162.022 718.956 165.156 716.516 C166.946 715.045 168.311 713.558 169.75 711.75 C172 709 172 709 175 707 C175.082 706.092 175.165 705.185 175.25 704.25 C176.209 700.092 177.909 699.047 181.172 696.5 C183 695 183 695 185.5 692 C187.546 689.545 189.276 687.931 191.75 686 C194.936 683.386 194.936 683.386 195.5 680 C196.175 675.949 198.035 674.948 201.172 672.5 C203 671 203 671 205.5 668 C207.546 665.545 209.276 663.931 211.75 662 C214.936 659.386 214.936 659.386 215.5 656 C216.175 651.949 218.035 650.948 221.172 648.5 C223 647 223 647 225.5 644 C227.546 641.545 229.276 639.931 231.75 638 C234.936 635.386 234.936 635.386 235.5 632 C236.175 627.949 238.035 626.948 241.172 624.5 C243 623 243 623 245.5 620 C247.546 617.545 249.276 615.931 251.75 614 C254.936 611.386 254.936 611.386 255.5 608 C256.174 603.956 258.022 602.956 261.156 600.516 C262.946 599.045 264.311 597.558 265.75 595.75 C268 593 268 593 271 591 C271.082 590.092 271.165 589.185 271.25 588.25 C272.209 584.092 273.909 583.047 277.172 580.5 C279 579 279 579 281.5 576 C284.37 572.557 287.566 569.855 291 567 C294.924 563.695 294.924 563.695 295.312 560.125 C296.209 556.051 297.978 554.993 301.172 552.5 C303 551 303 551 305.5 548 C307.546 545.545 309.276 543.931 311.75 542 C314.936 539.386 314.936 539.386 315.5 536 C316.174 531.956 318.022 530.956 321.156 528.516 C322.946 527.045 324.311 525.558 325.75 523.75 C328 521 328 521 331 519 C331.082 518.092 331.165 517.185 331.25 516.25 C332.111 512.519 332.598 512.342 335.562 510.25 C337.883 508.424 338.862 507.468 339.707 504.609 C339.941 500.968 339.956 498.203 337.625 495.27 C335.875 493.812 335.875 493.812 333.934 492.43 C331.914 490.936 330.514 489.386 328.938 487.438 C327.03 485.101 325.174 483.29 322.75 481.5 C319.418 478.47 319.215 476.253 318 472 C315.25 469.5 315.25 469.5 313.641 468.312 C311.242 466.394 309.455 464.056 307.516 461.688 C306.033 460.037 304.53 458.814 302.75 457.5 C299.418 454.47 299.215 452.253 298 448 C295.25 445.5 295.25 445.5 293.656 444.328 C291.174 442.338 289.29 439.918 287.297 437.453 C286 436 286 436 284 435 C283.753 433.928 283.505 432.855 283.25 431.75 C281.962 427.885 280.849 426.68 277.641 424.312 C275.242 422.394 273.455 420.056 271.516 417.688 C270.033 416.037 268.53 414.814 266.75 413.5 C263.418 410.47 263.215 408.253 262 404 C259.25 401.5 259.25 401.5 257.656 400.328 C255.174 398.338 253.29 395.918 251.297 393.453 C250 392 250 392 248 391 C247.753 389.928 247.505 388.855 247.25 387.75 C245.657 382.97 243.958 381.969 240 379 C239.67 378.505 239.67 378.505 238 376 C235 375.625 235 375.625 232 376 Z M387.586 577.066 C385.945 579.068 384.234 580.488 382.188 582.062 C379.064 584.617 379.064 584.617 378.5 588 C377.825 592.051 375.965 593.052 372.828 595.5 C371 597 371 597 368.5 600 C366.454 602.455 364.724 604.069 362.25 606 C359.064 608.614 359.064 608.614 358.5 612 C357.825 616.051 355.965 617.052 352.828 619.5 C351 621 351 621 348.5 624 C346.454 626.455 344.724 628.069 342.25 630 C339.064 632.614 339.064 632.614 338.5 636 C337.825 640.051 335.965 641.052 332.828 643.5 C331 645 331 645 328.5 648 C326.454 650.455 324.724 652.069 322.25 654 C319.064 656.614 319.064 656.614 318.5 660 C317.826 664.044 315.978 665.044 312.844 667.484 C311.054 668.955 309.689 670.442 308.25 672.25 C306 675 306 675 303 677 C302.918 677.908 302.835 678.815 302.75 679.75 C301.791 683.908 300.091 684.953 296.828 687.5 C295 689 295 689 292.5 692 C290.454 694.455 288.724 696.069 286.25 698 C283.064 700.614 283.064 700.614 282.5 704 C281.825 708.051 279.965 709.052 276.828 711.5 C275 713 275 713 272.5 716 C270.454 718.455 268.724 720.069 266.25 722 C263.064 724.614 263.064 724.614 262.5 728 C261.826 732.044 259.978 733.044 256.844 735.484 C255.054 736.955 253.689 738.442 252.25 740.25 C250 743 250 743 247 745 C246.918 745.908 246.835 746.815 246.75 747.75 C245.791 751.908 244.091 752.953 240.828 755.5 C239 757 239 757 236.5 760 C233.63 763.443 230.434 766.145 227 769 C223.076 772.305 223.076 772.305 222.688 775.875 C221.793 779.942 220.035 781 216.844 783.484 C215.054 784.955 213.689 786.442 212.25 788.25 C210 791 210 791 207 793 C206.918 793.908 206.835 794.815 206.75 795.75 C205.791 799.908 204.091 800.953 200.828 803.5 C199 805 199 805 196.5 808 C193.63 811.443 190.434 814.145 187 817 C183.076 820.305 183.076 820.305 182.688 823.875 C181.793 827.942 180.035 829 176.844 831.484 C175.054 832.955 173.689 834.442 172.25 836.25 C170 839 170 839 167 841 C166.918 841.908 166.835 842.815 166.75 843.75 C165.792 847.901 164.104 848.946 160.844 851.484 C159.054 852.955 157.689 854.442 156.25 856.25 C154 859 154 859 151 861 C150.918 861.908 150.835 862.815 150.75 863.75 C149.791 867.908 148.091 868.953 144.828 871.5 C143 873 143 873 140.5 876 C137.63 879.443 134.434 882.145 131 885 C127.076 888.305 127.076 888.305 126.688 891.875 C125.793 895.942 124.035 897 120.844 899.484 C119.054 900.955 117.689 902.442 116.25 904.25 C114 907 114 907 111 909 C110.918 909.908 110.835 910.815 110.75 911.75 C109.661 916.468 106.712 918.139 103 921 C100.562 923.188 100.562 923.188 99 925 C99 925.99 99 926.98 99 928 C99.99 928.33 100.98 928.66 102 929 C102.33 929.495 102.33 929.495 104 932 C106.901 932.376 106.901 932.376 110.706 932.378 C111.407 932.382 112.107 932.386 112.829 932.391 C115.201 932.402 117.572 932.391 119.944 932.381 C121.652 932.384 123.36 932.389 125.068 932.395 C129.78 932.408 134.492 932.401 139.204 932.392 C144.278 932.385 149.352 932.396 154.427 932.404 C164.375 932.417 174.323 932.415 184.271 932.406 C192.352 932.399 200.434 932.398 208.515 932.401 C209.089 932.402 209.089 932.402 211.994 932.403 C214.327 932.404 216.659 932.405 218.991 932.406 C240.883 932.414 262.775 932.404 284.668 932.388 C303.472 932.375 322.275 932.377 341.079 932.391 C362.891 932.407 384.702 932.413 406.514 932.404 C408.837 932.403 411.161 932.402 413.485 932.401 C414.628 932.401 415.772 932.401 416.95 932.4 C425.026 932.397 433.102 932.402 441.179 932.409 C451.015 932.417 460.85 932.415 470.686 932.399 C475.709 932.391 480.732 932.388 485.755 932.398 C490.347 932.407 494.938 932.402 499.53 932.386 C501.197 932.383 502.865 932.384 504.532 932.392 C506.786 932.401 509.04 932.392 511.294 932.378 C512.55 932.377 513.805 932.377 515.099 932.376 C516.057 932.252 517.014 932.128 518 932 C518.66 931.01 519.32 930.02 520 929 C522.383 928.488 522.383 928.488 525.125 928.312 C526.035 928.247 526.945 928.181 527.883 928.113 C528.581 928.076 529.28 928.039 530 928 C530.66 929.32 531.32 930.64 532 932 C532.99 931.67 533.98 931.34 535 931 C535.33 930.34 535.66 929.68 536 929 C536.66 929 537.32 929 538 929 C538.66 929.99 539.32 930.98 540 932 C540.99 931.67 541.98 931.34 543 931 C543.33 930.34 543.66 929.68 544 929 C544.66 929 545.32 929 546 929 C546.66 929.99 547.32 930.98 548 932 C549.32 931.34 550.64 930.68 552 930 C552 929.34 552 928.68 552 928 C597.87 928 643.74 928 691 928 C690.67 926.68 690.34 925.36 690 924 C689.01 923.67 688.02 923.34 687 923 C686.67 922.01 686.34 921.02 686 920 C685.031 919.257 684.061 918.515 683.062 917.75 C679.559 915 679.213 912.245 678 908 C675.25 905.5 675.25 905.5 673.656 904.328 C671.174 902.338 669.29 899.918 667.297 897.453 C666 896 666 896 664 895 C663.753 893.928 663.505 892.855 663.25 891.75 C661.964 887.893 660.864 886.687 657.656 884.328 C655.174 882.338 653.29 879.918 651.297 877.453 C650 876 650 876 648 875 C647.753 873.928 647.505 872.855 647.25 871.75 C645.962 867.885 644.849 866.68 641.641 864.312 C639.828 862.862 638.47 861.295 637 859.5 C634.268 856.203 631.334 853.682 628 851 C624.993 848.494 624.108 847.425 623.125 843.562 C621.934 839.791 620.763 838.616 617.641 836.312 C615.242 834.394 613.455 832.056 611.516 829.688 C610.033 828.037 608.53 826.814 606.75 825.5 C603.418 822.47 603.215 820.253 602 816 C599.25 813.5 599.25 813.5 597.641 812.312 C595.242 810.394 593.455 808.056 591.516 805.688 C590.033 804.037 588.53 802.814 586.75 801.5 C583.418 798.47 583.215 796.253 582 792 C579.25 789.5 579.25 789.5 577.656 788.328 C575.174 786.338 573.29 783.918 571.297 781.453 C570 780 570 780 568 779 C567.753 777.928 567.505 776.855 567.25 775.75 C565.964 771.893 564.864 770.687 561.656 768.328 C559.174 766.338 557.29 763.918 555.297 761.453 C554 760 554 760 552 759 C551.753 757.928 551.505 756.855 551.25 755.75 C549.962 751.885 548.849 750.68 545.641 748.312 C543.828 746.862 542.47 745.295 541 743.5 C538.268 740.203 535.334 737.682 532 735 C528.993 732.494 528.108 731.425 527.125 727.562 C525.936 723.799 524.777 722.623 521.656 720.328 C519.174 718.338 517.29 715.918 515.297 713.453 C514 712 514 712 512 711 C511.753 709.928 511.505 708.855 511.25 707.75 C509.962 703.885 508.849 702.68 505.641 700.312 C503.242 698.394 501.455 696.056 499.516 693.688 C498.033 692.037 496.53 690.814 494.75 689.5 C491.418 686.47 491.215 684.253 490 680 C487.25 677.5 487.25 677.5 485.641 676.312 C483.242 674.394 481.455 672.056 479.516 669.688 C478.033 668.037 476.53 666.814 474.75 665.5 C471.418 662.47 471.215 660.253 470 656 C467.25 653.5 467.25 653.5 465.656 652.328 C463.174 650.338 461.29 647.918 459.297 645.453 C458 644 458 644 456 643 C455.876 642.464 455.876 642.464 455.25 639.75 C453.962 635.885 452.849 634.68 449.641 632.312 C447.242 630.394 445.455 628.056 443.516 625.688 C442.033 624.037 440.53 622.814 438.75 621.5 C435.418 618.47 435.215 616.253 434 612 C431.25 609.5 431.25 609.5 429.641 608.312 C427.242 606.394 425.455 604.056 423.516 601.688 C422.033 600.037 420.53 598.814 418.75 597.5 C415.418 594.47 415.215 592.253 414 588 C411.25 585.5 411.25 585.5 409.648 584.316 C407.805 582.845 406.387 581.245 404.875 579.438 C404.377 578.847 403.88 578.257 403.367 577.648 C402.241 576.29 401.119 574.927 400 573.562 C398 572 398 572 395.125 571.312 C391.082 572.202 390.025 573.86 387.586 577.066 Z " fill="#FF3503"/>
</svg>
